# Blender 4.2.9 LTS
# www.blender.org
mtllib gardenshears.mtl
g Bolt_Cylinder
v 0.032591 -0.148882 -0.160000
v 0.032591 0.039525 -0.160000
v 0.184760 -0.148882 -0.049443
v 0.184760 0.039525 -0.049443
v 0.126637 -0.148882 0.129443
v 0.126637 0.039525 0.129443
v -0.061454 -0.148882 0.129443
v -0.061454 0.039525 0.129443
v -0.119578 -0.148882 -0.049443
v -0.119578 0.039525 -0.049443
vn 0.5878 -0.0000 -0.8090
vn 0.9511 -0.0000 0.3090
vn -0.0000 -0.0000 1.0000
vn -0.0000 1.0000 -0.0000
vn -0.9511 -0.0000 0.3090
vn -0.5878 -0.0000 -0.8090
vn -0.0000 -1.0000 -0.0000
vt 1.000000 0.500000
vt 1.000000 1.000000
vt 0.800000 1.000000
vt 0.800000 0.500000
vt 0.600000 1.000000
vt 0.600000 0.500000
vt 0.400000 1.000000
vt 0.400000 0.500000
vt 0.478254 0.324164
vt 0.250000 0.490000
vt 0.021746 0.324164
vt 0.108932 0.055836
vt 0.391068 0.055836
vt 0.200000 1.000000
vt 0.200000 0.500000
vt 0.000000 1.000000
vt 0.000000 0.500000
vt 0.750000 0.490000
vt 0.978254 0.324164
vt 0.891068 0.055836
vt 0.608932 0.055836
vt 0.521746 0.324164
s 0
f 1/1/1 2/2/1 4/3/1 3/4/1
f 3/4/2 4/3/2 6/5/2 5/6/2
f 5/6/3 6/5/3 8/7/3 7/8/3
f 4/9/4 2/10/4 10/11/4 8/12/4 6/13/4
f 7/8/5 8/7/5 10/14/5 9/15/5
f 9/15/6 10/14/6 2/16/6 1/17/6
f 1/18/7 3/19/7 5/20/7 7/21/7 9/22/7
g Blade_Cube.001
v -0.038516 -0.057320 -0.207108
v -0.038516 0.006081 -0.207108
v -0.038516 -0.057320 0.207108
v -0.038516 0.006081 0.207108
v 1.499442 -0.057320 -0.207108
v 1.499442 0.006081 -0.207108
v 1.499442 -0.057320 0.113859
v 1.499442 0.006081 0.113859
v 2.107266 0.006081 0.073841
v 2.107266 -0.057320 0.073841
v -0.190678 -0.057320 0.436262
v -0.190678 -0.057320 0.022047
v -0.190678 0.006081 0.022047
v -0.190678 0.006081 0.436262
v -0.378844 -0.057320 0.528865
v -0.378844 -0.057320 0.114650
v -0.378844 0.006081 0.114650
v -0.378844 0.006081 0.528865
v -0.517892 -0.057320 0.528865
v -0.517892 -0.057320 0.114650
v -0.517892 0.006081 0.114650
v -0.517892 0.006081 0.528865
vn -0.0000 -1.0000 -0.0000
vn -0.0605 -0.0000 -0.9982
vn -0.4196 -0.0000 0.9077
vn -0.0000 -0.0000 1.0000
vn -0.0000 1.0000 -0.0000
vn -0.0657 -0.0000 -0.9978
vn -0.4416 -0.0000 -0.8972
vn -0.8331 -0.0000 -0.5532
vn 0.8331 -0.0000 0.5532
vn 0.4416 -0.0000 0.8972
vn 1.0000 -0.0000 -0.0000
vn -0.0000 -0.0000 -1.0000
vt 0.875000 0.750000
vt 0.875000 0.500000
vt 0.375000 0.250000
vt 0.625000 0.250000
vt 0.625000 0.500000
vt 0.375000 0.500000
vt 0.625000 0.750000
vt 0.375000 0.750000
vt 0.625000 1.000000
vt 0.375000 1.000000
vt 0.125000 0.500000
vt 0.125000 0.750000
vt 0.375000 0.000000
vt 0.625000 0.000000
s 0
f 12/23/8 14/24/8 24/24/8 23/23/8
f 13/25/9 14/26/9 18/27/9 17/28/9
f 16/29/10 15/30/10 20/30/10 19/29/10
f 15/30/11 16/29/11 12/31/11 11/32/11
f 13/33/12 17/28/12 15/30/12 11/34/12
f 18/27/8 14/24/8 12/23/8 16/29/8
f 17/28/13 18/27/13 19/27/13 20/28/13
f 18/27/8 16/29/8 19/27/8
f 17/28/12 20/28/12 15/30/12
f 24/26/14 21/25/14 25/25/14 28/26/14
f 13/33/12 11/34/12 22/34/12 21/33/12
f 14/26/15 13/25/15 21/25/15 24/26/15
f 11/32/16 12/31/16 23/31/16 22/32/16
f 27/23/8 28/24/8 32/24/8 31/23/8
f 22/32/17 23/31/17 27/31/17 26/32/17
f 23/23/8 24/24/8 28/24/8 27/23/8
f 21/33/12 22/34/12 26/34/12 25/33/12
f 30/35/18 31/36/18 32/26/18 29/25/18
f 25/33/12 26/34/12 30/34/12 29/33/12
f 28/26/19 25/25/19 29/25/19 32/26/19
f 26/32/11 27/31/11 31/31/11 30/32/11
g Handle_Cylinder.001
v -0.520108 -0.021727 0.205283
v -2.338517 -0.021727 0.379200
v -0.507597 0.146517 0.336089
v -2.326006 0.146517 0.510005
v -0.487355 0.082253 0.547737
v -2.305764 0.082253 0.721653
v -0.487355 -0.125708 0.547737
v -2.305764 -0.125708 0.721653
v -0.507597 -0.189972 0.336089
v -2.326006 -0.189972 0.510005
vn -0.0750 0.6155 -0.7845
vn 0.0275 0.9572 0.2880
vn 0.0952 -0.0000 0.9955
vn -0.9955 -0.0000 0.0952
vn 0.0275 -0.9572 0.2880
vn -0.0750 -0.6155 -0.7845
vn 0.9955 -0.0000 -0.0952
vt 1.000000 0.500000
vt 1.000000 1.000000
vt 0.800000 1.000000
vt 0.800000 0.500000
vt 0.600000 1.000000
vt 0.600000 0.500000
vt 0.400000 1.000000
vt 0.400000 0.500000
vt 0.478254 0.324164
vt 0.250000 0.490000
vt 0.021746 0.324164
vt 0.108932 0.055836
vt 0.391068 0.055836
vt 0.200000 1.000000
vt 0.200000 0.500000
vt 0.000000 1.000000
vt 0.000000 0.500000
vt 0.750000 0.490000
vt 0.978254 0.324164
vt 0.891068 0.055836
vt 0.608932 0.055836
vt 0.521746 0.324164
s 0
f 33/37/20 34/38/20 36/39/20 35/40/20
f 35/40/21 36/39/21 38/41/21 37/42/21
f 37/42/22 38/41/22 40/43/22 39/44/22
f 36/45/23 34/46/23 42/47/23 40/48/23 38/49/23
f 39/44/24 40/43/24 42/50/24 41/51/24
f 41/51/25 42/50/25 34/52/25 33/53/25
f 33/54/26 35/55/26 37/56/26 39/57/26 41/58/26
