# Blender 4.2.9 LTS
# www.blender.org
mtllib gardenshears.mtl
g Bolt_Cylinder
v 0.032591 -0.148882 -0.160000
v 0.032591 0.039525 -0.160000
v 0.184760 -0.148882 -0.049443
v 0.184760 0.039525 -0.049443
v 0.126637 -0.148882 0.129443
v 0.126637 0.039525 0.129443
v -0.061454 -0.148882 0.129443
v -0.061454 0.039525 0.129443
v -0.119578 -0.148882 -0.049443
v -0.119578 0.039525 -0.049443
vn 0.5878 -0.0000 -0.8090
vn 0.9511 -0.0000 0.3090
vn -0.0000 -0.0000 1.0000
vn -0.0000 1.0000 -0.0000
vn -0.9511 -0.0000 0.3090
vn -0.5878 -0.0000 -0.8090
vn -0.0000 -1.0000 -0.0000
vt 1.000000 0.500000
vt 1.000000 1.000000
vt 0.800000 1.000000
vt 0.800000 0.500000
vt 0.600000 1.000000
vt 0.600000 0.500000
vt 0.400000 1.000000
vt 0.400000 0.500000
vt 0.478254 0.324164
vt 0.250000 0.490000
vt 0.021746 0.324164
vt 0.108932 0.055836
vt 0.391068 0.055836
vt 0.200000 1.000000
vt 0.200000 0.500000
vt 0.000000 1.000000
vt 0.000000 0.500000
vt 0.750000 0.490000
vt 0.978254 0.324164
vt 0.891068 0.055836
vt 0.608932 0.055836
vt 0.521746 0.324164
s 0
f 1/1/1 2/2/1 4/3/1 3/4/1
f 3/4/2 4/3/2 6/5/2 5/6/2
f 5/6/3 6/5/3 8/7/3 7/8/3
f 4/9/4 2/10/4 10/11/4 8/12/4 6/13/4
f 7/8/5 8/7/5 10/14/5 9/15/5
f 9/15/6 10/14/6 2/16/6 1/17/6
f 1/18/7 3/19/7 5/20/7 7/21/7 9/22/7
g Blade.001_Cube.003
v -0.051434 -0.128440 0.193762
v -0.051434 -0.065039 0.193762
v -0.023370 -0.128440 -0.219501
v -0.023370 -0.065039 -0.219501
v 1.482989 -0.128440 0.297966
v 1.482989 -0.065039 0.297966
v 1.504736 -0.128440 -0.022263
v 1.504736 -0.065039 -0.022263
v 2.108452 -0.065039 0.058846
v 2.108452 -0.128440 0.058846
v -0.159655 -0.128440 -0.458438
v -0.187720 -0.128440 -0.045175
v -0.187720 -0.065039 -0.045175
v -0.159655 -0.065039 -0.458438
v -0.341115 -0.128440 -0.563578
v -0.369180 -0.128440 -0.150314
v -0.369180 -0.065039 -0.150314
v -0.341115 -0.065039 -0.563578
v -0.479843 -0.128440 -0.572999
v -0.507908 -0.128440 -0.159735
v -0.507908 -0.065039 -0.159735
v -0.479843 -0.065039 -0.572999
vn -0.0000 1.0000 -0.0000
vn 0.1280 -0.0000 -0.9918
vn 0.3571 -0.0000 0.9341
vn -0.0678 -0.0000 0.9977
vn -0.0000 -1.0000 -0.0000
vn 0.1332 -0.0000 -0.9911
vn 0.5013 -0.0000 -0.8653
vn 0.8686 -0.0000 -0.4955
vn -0.8686 -0.0000 0.4955
vn -0.5013 -0.0000 0.8653
vn -0.9977 -0.0000 -0.0678
vn 0.0678 -0.0000 -0.9977
vt 0.875000 0.750000
vt 0.875000 0.500000
vt 0.375000 0.250000
vt 0.625000 0.250000
vt 0.625000 0.500000
vt 0.375000 0.500000
vt 0.625000 0.750000
vt 0.375000 0.750000
vt 0.625000 1.000000
vt 0.375000 1.000000
vt 0.125000 0.500000
vt 0.125000 0.750000
vt 0.375000 0.000000
vt 0.625000 0.000000
s 0
f 12/23/8 14/24/8 24/24/8 23/23/8
f 13/25/9 14/26/9 18/27/9 17/28/9
f 16/29/10 15/30/10 20/30/10 19/29/10
f 15/30/11 16/29/11 12/31/11 11/32/11
f 13/33/12 17/28/12 15/30/12 11/34/12
f 18/27/8 14/24/8 12/23/8 16/29/8
f 17/28/13 18/27/13 19/27/13 20/28/13
f 18/27/8 16/29/8 19/27/8
f 17/28/12 20/28/12 15/30/12
f 24/26/14 21/25/14 25/25/14 28/26/14
f 13/33/12 11/34/12 22/34/12 21/33/12
f 14/26/15 13/25/15 21/25/15 24/26/15
f 11/32/16 12/31/16 23/31/16 22/32/16
f 27/23/8 28/24/8 32/24/8 31/23/8
f 22/32/17 23/31/17 27/31/17 26/32/17
f 23/23/8 24/24/8 28/24/8 27/23/8
f 21/33/12 22/34/12 26/34/12 25/33/12
f 30/35/18 31/36/18 32/26/18 29/25/18
f 25/33/12 26/34/12 30/34/12 29/33/12
f 28/26/19 25/25/19 29/25/19 32/26/19
f 26/32/11 27/31/11 31/31/11 30/32/11
g Handle.001_Cylinder.002
v -0.462363 -0.092847 -0.245483
v -2.264810 -0.092847 -0.542205
v -0.441019 0.075397 -0.375140
v -2.243466 0.075397 -0.671863
v -0.406483 0.011133 -0.584931
v -2.208930 0.011134 -0.881653
v -0.406483 -0.196828 -0.584931
v -2.208930 -0.196828 -0.881653
v -0.441019 -0.261092 -0.375140
v -2.243466 -0.261092 -0.671863
vn 0.1280 -0.6155 -0.7776
vn -0.0470 -0.9572 0.2855
vn -0.1624 -0.0000 0.9867
vn 0.9867 -0.0000 0.1624
vn -0.0470 0.9572 0.2855
vn 0.1280 0.6155 -0.7776
vn -0.9867 -0.0000 -0.1624
vt 1.000000 0.500000
vt 1.000000 1.000000
vt 0.800000 1.000000
vt 0.800000 0.500000
vt 0.600000 1.000000
vt 0.600000 0.500000
vt 0.400000 1.000000
vt 0.400000 0.500000
vt 0.478254 0.324164
vt 0.250000 0.490000
vt 0.021746 0.324164
vt 0.108932 0.055836
vt 0.391068 0.055836
vt 0.200000 1.000000
vt 0.200000 0.500000
vt 0.000000 1.000000
vt 0.000000 0.500000
vt 0.750000 0.490000
vt 0.978254 0.324164
vt 0.891068 0.055836
vt 0.608932 0.055836
vt 0.521746 0.324164
s 0
f 33/37/20 34/38/20 36/39/20 35/40/20
f 35/40/21 36/39/21 38/41/21 37/42/21
f 37/42/22 38/41/22 40/43/22 39/44/22
f 36/45/23 34/46/23 42/47/23 40/48/23 38/49/23
f 39/44/24 40/43/24 42/50/24 41/51/24
f 41/51/25 42/50/25 34/52/25 33/53/25
f 33/54/26 35/55/26 37/56/26 39/57/26 41/58/26
g Blade_Cube.001
v -0.038516 -0.057320 -0.207108
v -0.038516 0.006081 -0.207108
v -0.038516 -0.057320 0.207108
v -0.038516 0.006081 0.207108
v 1.499442 -0.057320 -0.207108
v 1.499442 0.006081 -0.207108
v 1.499442 -0.057320 0.113859
v 1.499442 0.006081 0.113859
v 2.107266 0.006081 0.073841
v 2.107266 -0.057320 0.073841
v -0.190678 -0.057320 0.436262
v -0.190678 -0.057320 0.022047
v -0.190678 0.006081 0.022047
v -0.190678 0.006081 0.436262
v -0.378844 -0.057320 0.528865
v -0.378844 -0.057320 0.114650
v -0.378844 0.006081 0.114650
v -0.378844 0.006081 0.528865
v -0.517892 -0.057320 0.528865
v -0.517892 -0.057320 0.114650
v -0.517892 0.006081 0.114650
v -0.517892 0.006081 0.528865
vn -0.0000 -1.0000 -0.0000
vn -0.0605 -0.0000 -0.9982
vn -0.4196 -0.0000 0.9077
vn -0.0000 -0.0000 1.0000
vn -0.0000 1.0000 -0.0000
vn -0.0657 -0.0000 -0.9978
vn -0.4416 -0.0000 -0.8972
vn -0.8331 -0.0000 -0.5532
vn 0.8331 -0.0000 0.5532
vn 0.4416 -0.0000 0.8972
vn 1.0000 -0.0000 -0.0000
vn -0.0000 -0.0000 -1.0000
vt 0.875000 0.750000
vt 0.875000 0.500000
vt 0.375000 0.250000
vt 0.625000 0.250000
vt 0.625000 0.500000
vt 0.375000 0.500000
vt 0.625000 0.750000
vt 0.375000 0.750000
vt 0.625000 1.000000
vt 0.375000 1.000000
vt 0.125000 0.500000
vt 0.125000 0.750000
vt 0.375000 0.000000
vt 0.625000 0.000000
s 0
f 44/59/27 46/60/27 56/60/27 55/59/27
f 45/61/28 46/62/28 50/63/28 49/64/28
f 48/65/29 47/66/29 52/66/29 51/65/29
f 47/66/30 48/65/30 44/67/30 43/68/30
f 45/69/31 49/64/31 47/66/31 43/70/31
f 50/63/27 46/60/27 44/59/27 48/65/27
f 49/64/32 50/63/32 51/63/32 52/64/32
f 50/63/27 48/65/27 51/63/27
f 49/64/31 52/64/31 47/66/31
f 56/62/33 53/61/33 57/61/33 60/62/33
f 45/69/31 43/70/31 54/70/31 53/69/31
f 46/62/34 45/61/34 53/61/34 56/62/34
f 43/68/35 44/67/35 55/67/35 54/68/35
f 59/59/27 60/60/27 64/60/27 63/59/27
f 54/68/36 55/67/36 59/67/36 58/68/36
f 55/59/27 56/60/27 60/60/27 59/59/27
f 53/69/31 54/70/31 58/70/31 57/69/31
f 62/71/37 63/72/37 64/62/37 61/61/37
f 57/69/31 58/70/31 62/70/31 61/69/31
f 60/62/38 57/61/38 61/61/38 64/62/38
f 58/68/30 59/67/30 63/67/30 62/68/30
g Handle_Cylinder.001
v -0.520108 -0.021727 0.205283
v -2.338517 -0.021727 0.379200
v -0.507597 0.146517 0.336089
v -2.326006 0.146517 0.510005
v -0.487355 0.082253 0.547737
v -2.305764 0.082253 0.721653
v -0.487355 -0.125708 0.547737
v -2.305764 -0.125708 0.721653
v -0.507597 -0.189972 0.336089
v -2.326006 -0.189972 0.510005
vn -0.0750 0.6155 -0.7845
vn 0.0275 0.9572 0.2880
vn 0.0952 -0.0000 0.9955
vn -0.9955 -0.0000 0.0952
vn 0.0275 -0.9572 0.2880
vn -0.0750 -0.6155 -0.7845
vn 0.9955 -0.0000 -0.0952
vt 1.000000 0.500000
vt 1.000000 1.000000
vt 0.800000 1.000000
vt 0.800000 0.500000
vt 0.600000 1.000000
vt 0.600000 0.500000
vt 0.400000 1.000000
vt 0.400000 0.500000
vt 0.478254 0.324164
vt 0.250000 0.490000
vt 0.021746 0.324164
vt 0.108932 0.055836
vt 0.391068 0.055836
vt 0.200000 1.000000
vt 0.200000 0.500000
vt 0.000000 1.000000
vt 0.000000 0.500000
vt 0.750000 0.490000
vt 0.978254 0.324164
vt 0.891068 0.055836
vt 0.608932 0.055836
vt 0.521746 0.324164
s 0
f 65/73/39 66/74/39 68/75/39 67/76/39
f 67/76/40 68/75/40 70/77/40 69/78/40
f 69/78/41 70/77/41 72/79/41 71/80/41
f 68/81/42 66/82/42 74/83/42 72/84/42 70/85/42
f 71/80/43 72/79/43 74/86/43 73/87/43
f 73/87/44 74/86/44 66/88/44 65/89/44
f 65/90/45 67/91/45 69/92/45 71/93/45 73/94/45
